<?xml version="1.0" standalone="no"?>
<!DOCTYPE svg PUBLIC "-//W3C//DTD SVG 20010904//EN"
 "http://www.w3.org/TR/2001/REC-SVG-20010904/DTD/svg10.dtd">
<svg version="1.0" xmlns="http://www.w3.org/2000/svg"
 width="260.000000pt" height="260.000000pt" viewBox="0 0 260.000000 260.000000"
 preserveAspectRatio="xMidYMid meet">
<metadata>
Created by potrace 1.11, written by Peter Selinger 2001-2013
</metadata>
<g transform="translate(0.000000,260.000000) scale(0.100000,-0.100000)"
fill="#000000" stroke="none">
<path d="M479 2198 c-1 -16 -1 -960 0 -970 1 -5 284 -8 629 -8 l629 0 -1 -189
c-1 -104 1 -187 4 -185 3 2 108 106 233 231 l228 228 -228 226 c-125 124 -230
224 -232 222 -2 -1 -4 -86 -4 -188 l0 -185 -549 0 c-515 0 -548 1 -549 18 0 9
-1 196 -1 415 l-1 397 -79 0 c-55 0 -78 -4 -79 -12z"/>
</g>
</svg>
