<?xml version="1.0" standalone="no"?>
<!DOCTYPE svg PUBLIC "-//W3C//DTD SVG 20010904//EN"
 "http://www.w3.org/TR/2001/REC-SVG-20010904/DTD/svg10.dtd">
<svg version="1.0" xmlns="http://www.w3.org/2000/svg"
 width="3722.000000pt" height="3722.000000pt" viewBox="0 0 3722.000000 3722.000000"
 preserveAspectRatio="xMidYMid meet">
<metadata>
Created by potrace 1.11, written by Peter Selinger 2001-2013
</metadata>
<g transform="translate(0.000000,3722.000000) scale(0.100000,-0.100000)"
fill="#000000" stroke="none">
<path d="M18470 34373 c-19 -2 -75 -10 -125 -18 -49 -8 -108 -17 -130 -20 -22
-4 -60 -11 -85 -17 -25 -5 -54 -11 -65 -14 -11 -2 -31 -6 -45 -9 -14 -3 -34
-7 -45 -9 -11 -3 -42 -10 -70 -16 -27 -6 -59 -13 -70 -16 -97 -19 -591 -139
-625 -151 -8 -3 -24 -7 -36 -8 -11 -2 -40 -9 -65 -15 -24 -7 -51 -14 -59 -15
-8 -2 -16 -4 -17 -5 -2 -2 -6 -3 -10 -4 -5 -1 -33 -8 -63 -16 -30 -8 -58 -13
-62 -12 -5 1 -8 -3 -8 -9 0 -5 -4 -8 -8 -5 -7 4 -160 -34 -202 -51 -8 -3 -28
-7 -43 -9 -16 -2 -37 -9 -48 -14 -10 -6 -19 -8 -19 -6 0 3 -12 1 -27 -5 -16
-6 -36 -12 -46 -14 -10 -2 -56 -16 -102 -30 -47 -14 -125 -37 -173 -51 -153
-43 -407 -127 -410 -136 -2 -4 -7 -6 -12 -3 -14 9 -274 -98 -340 -140 -8 -5
-17 -10 -20 -10 -3 -1 -52 -25 -110 -55 -58 -30 -115 -59 -127 -63 -13 -5 -23
-13 -23 -18 0 -5 -4 -8 -8 -6 -7 2 -261 -122 -272 -133 -3 -3 -120 -61 -260
-130 -140 -69 -257 -127 -260 -130 -3 -3 -90 -48 -195 -100 -104 -52 -193 -99
-197 -105 -4 -5 -8 -6 -8 -2 0 5 -13 -1 -30 -13 -16 -12 -30 -18 -30 -14 0 3
-6 2 -12 -4 -11 -8 -223 -119 -423 -220 -27 -14 -52 -29 -55 -32 -3 -4 -14
-10 -25 -14 -32 -11 -222 -127 -247 -151 -13 -11 -33 -27 -45 -36 -12 -8 -50
-40 -85 -71 -34 -30 -78 -68 -97 -84 -49 -43 -158 -142 -218 -200 -29 -28 -53
-49 -53 -47 0 2 -13 -9 -28 -24 -50 -50 -214 -198 -223 -201 -5 -2 -9 -10 -9
-18 0 -8 -6 -13 -12 -11 -7 1 -12 -4 -11 -10 2 -7 -1 -12 -5 -10 -12 3 -228
-204 -224 -215 1 -5 -1 -7 -6 -4 -11 6 -43 -30 -34 -39 4 -4 1 -5 -5 -3 -13 3
-396 -382 -388 -390 2 -2 -9 -15 -26 -29 -16 -14 -29 -29 -29 -34 0 -6 -8 -19
-18 -30 -11 -10 -25 -32 -33 -47 -7 -15 -24 -41 -36 -58 -13 -17 -20 -34 -16
-37 3 -4 2 -7 -4 -7 -11 0 -93 -124 -93 -140 0 -4 -4 -10 -9 -12 -4 -1 -19
-22 -32 -45 -28 -48 -103 -169 -166 -266 -24 -37 -47 -75 -50 -85 -4 -9 -9
-19 -13 -22 -13 -10 -73 -115 -73 -127 0 -7 -4 -13 -7 -13 -10 0 -83 -121 -83
-137 0 -7 -2 -11 -5 -8 -4 4 -64 -91 -85 -135 -4 -8 -17 -31 -28 -50 -30 -49
-110 -206 -133 -260 -11 -25 -32 -73 -48 -108 -15 -34 -28 -68 -28 -75 0 -7
-4 -17 -9 -22 -33 -36 -289 -740 -308 -845 -2 -14 -6 -36 -10 -50 -12 -54 -6
-262 12 -385 2 -16 7 -52 10 -80 3 -27 7 -61 9 -75 2 -14 7 -47 11 -73 4 -27
8 -56 10 -65 1 -10 6 -44 10 -77 3 -32 8 -62 11 -66 2 -4 6 -27 9 -50 7 -52
23 -162 30 -204 3 -16 10 -59 15 -95 14 -83 28 -167 35 -205 21 -117 25 -322
11 -645 -11 -247 -7 -485 9 -510 2 -4 7 -22 10 -41 3 -19 12 -58 20 -86 8 -29
22 -79 31 -110 9 -32 22 -76 29 -98 12 -36 31 -106 41 -145 2 -8 15 -53 29
-100 14 -47 28 -101 31 -120 3 -19 8 -39 11 -43 2 -4 6 -24 9 -45 2 -20 6 -46
8 -57 14 -59 20 -235 18 -527 -1 -264 2 -337 13 -375 33 -106 31 -112 -21 -68
-16 14 -33 25 -37 25 -5 0 -5 5 -1 12 4 6 3 8 -3 5 -5 -3 -20 4 -34 17 -13 12
-39 29 -56 37 -18 7 -33 18 -33 22 0 5 -4 6 -9 2 -5 -3 -16 1 -24 9 -8 8 -17
12 -21 9 -3 -4 -6 0 -6 7 0 7 -3 10 -7 7 -3 -4 -12 -2 -20 4 -7 6 -13 8 -13 5
0 -4 -9 -2 -21 4 -31 17 -59 23 -114 22 -67 0 -85 -3 -85 -15 0 -6 -3 -8 -6
-4 -3 3 -13 -1 -22 -10 -67 -59 -90 -82 -111 -108 -12 -16 -26 -30 -30 -30
-14 0 -91 -84 -92 -102 -5 -75 4 -151 22 -184 5 -11 6 -19 2 -19 -4 0 0 -5 10
-11 9 -6 15 -14 12 -20 -4 -5 5 -13 18 -18 14 -6 28 -15 33 -22 5 -8 3 -10 -7
-4 -12 8 -12 6 -1 -8 9 -10 11 -24 6 -39 -19 -56 -35 -180 -48 -363 -3 -45 -8
-108 -11 -140 -3 -33 -8 -87 -10 -120 -3 -33 -7 -87 -10 -120 -6 -78 -15 -233
-30 -495 -9 -158 -10 -373 -1 -550 3 -69 8 -190 11 -270 3 -80 7 -176 10 -215
3 -38 7 -106 9 -150 3 -44 8 -96 11 -115 3 -19 7 -60 11 -90 10 -99 13 -119
25 -162 6 -24 12 -48 13 -55 1 -7 5 -16 9 -19 4 -4 7 -16 7 -26 0 -10 5 -18
10 -18 6 0 10 -8 10 -18 0 -10 7 -28 16 -40 8 -12 12 -22 7 -22 -4 0 -3 -4 4
-8 6 -4 13 -14 15 -22 2 -8 9 -21 16 -28 7 -8 10 -18 7 -23 -4 -5 -1 -9 5 -9
6 0 9 -4 5 -9 -3 -5 -1 -12 5 -16 10 -6 43 -76 40 -84 -1 -2 3 -7 8 -10 6 -3
12 -13 14 -21 2 -8 9 -21 16 -28 7 -8 10 -18 6 -23 -3 -5 2 -12 11 -15 9 -4
14 -13 11 -21 -3 -8 -2 -12 3 -9 9 6 38 -52 33 -66 -1 -5 2 -8 7 -8 8 0 24
-37 22 -52 -1 -5 4 -8 10 -8 5 0 8 -4 5 -9 -4 -5 -2 -11 3 -13 8 -3 127 -231
123 -236 -2 -1 6 -14 17 -29 12 -14 18 -29 15 -34 -3 -5 -1 -9 4 -9 9 0 39
-69 35 -82 -2 -4 2 -8 7 -8 6 0 10 -9 10 -20 0 -11 5 -20 11 -20 5 0 7 -5 4
-10 -3 -5 -2 -10 3 -10 7 0 24 -41 37 -90 1 -3 6 -23 13 -45 6 -22 13 -60 16
-85 6 -50 12 -80 31 -177 3 -14 10 -34 16 -45 5 -10 7 -24 3 -30 -5 -7 -3 -8
6 -3 8 5 11 3 8 -6 -3 -8 2 -20 9 -28 8 -7 12 -20 9 -27 -3 -8 -2 -14 3 -14 8
0 34 -54 32 -65 -1 -3 5 -13 14 -21 8 -9 13 -20 10 -25 -4 -5 -2 -9 4 -9 10 0
45 -56 46 -72 0 -4 9 -14 20 -23 11 -9 13 -13 5 -9 -8 4 9 -16 39 -44 29 -29
58 -52 63 -52 5 0 11 -7 14 -15 4 -8 13 -15 21 -15 8 0 11 -4 8 -10 -3 -5 2
-10 13 -10 10 0 28 -9 40 -20 12 -12 22 -18 22 -15 0 3 10 0 23 -7 12 -7 25
-11 30 -10 4 1 7 -3 7 -10 0 -6 3 -8 7 -5 3 4 12 2 20 -4 7 -6 13 -9 13 -5 0
4 14 0 30 -9 17 -9 30 -13 30 -10 0 3 17 -2 38 -10 26 -11 46 -13 63 -7 13 5
44 10 69 12 71 6 362 4 390 -2 14 -4 28 -7 32 -7 7 -1 41 -140 53 -216 2 -16
7 -43 10 -60 4 -16 8 -41 10 -55 2 -14 4 -25 5 -25 2 0 6 -19 14 -65 3 -19 8
-46 11 -60 3 -14 7 -41 10 -60 2 -19 4 -35 5 -35 3 0 20 -85 24 -120 2 -11 7
-36 11 -55 4 -19 9 -44 10 -55 1 -11 5 -27 9 -36 4 -9 6 -20 5 -25 -2 -7 5
-48 16 -94 3 -10 18 -106 21 -125 1 -11 3 -20 4 -20 2 0 6 -21 14 -69 4 -21 8
-48 11 -60 9 -38 16 -80 20 -113 2 -18 6 -36 8 -40 5 -7 11 -43 22 -113 1 -8
6 -23 10 -32 4 -10 5 -24 2 -32 -3 -7 -1 -18 4 -23 6 -6 12 -28 13 -49 2 -21
5 -39 6 -39 3 0 12 -51 14 -77 0 -16 4 -28 8 -28 4 0 7 -8 6 -17 0 -10 2 -28
5 -39 3 -12 8 -39 11 -60 4 -22 11 -56 17 -77 5 -20 7 -41 4 -46 -3 -5 -1 -11
5 -13 5 -1 11 -22 12 -45 2 -24 7 -43 11 -43 5 0 7 -6 4 -12 -2 -7 -1 -20 3
-28 5 -8 11 -33 14 -55 4 -22 11 -58 17 -79 6 -22 12 -49 14 -60 1 -12 6 -29
10 -38 4 -10 5 -25 1 -33 -3 -8 -1 -15 4 -15 5 0 9 -8 9 -17 -1 -10 8 -51 19
-90 20 -79 21 -114 8 -883 -4 -184 -8 -474 -11 -645 -3 -170 -7 -380 -10 -465
-4 -85 -8 -225 -10 -310 -4 -158 -12 -392 -20 -535 -3 -44 -7 -138 -11 -210
-9 -202 -20 -371 -29 -465 -2 -19 -6 -60 -9 -90 -7 -74 -21 -174 -31 -230 -10
-52 -10 -52 -24 -92 -7 -21 -17 -38 -23 -38 -6 0 -8 -3 -5 -7 4 -3 -1 -12 -11
-20 -10 -9 -11 -12 -2 -7 14 7 3 -9 -35 -52 -5 -6 -21 -26 -35 -44 -14 -19
-56 -63 -94 -99 -37 -36 -86 -84 -109 -106 -22 -22 -36 -33 -32 -25 5 8 -5 2
-22 -15 -46 -46 -93 -86 -93 -79 0 4 -10 -5 -23 -19 -12 -15 -28 -27 -35 -27
-7 0 -12 -5 -12 -12 0 -6 -3 -9 -6 -5 -3 3 -16 -5 -28 -17 -11 -13 -42 -37
-68 -53 -26 -17 -45 -33 -41 -37 3 -3 1 -6 -6 -6 -7 0 -22 -10 -33 -22 -11
-13 -17 -16 -13 -8 4 8 -5 2 -19 -13 -14 -15 -26 -25 -26 -21 0 4 -12 -6 -26
-22 -15 -16 -23 -22 -19 -14 4 8 -4 2 -19 -14 -14 -16 -26 -25 -26 -20 0 5 -4
4 -8 -3 -6 -9 -25 -7 -80 7 -105 28 -183 22 -317 -24 -207 -72 -269 -119 -649
-495 -153 -152 -288 -286 -300 -297 -80 -79 -184 -146 -254 -162 -29 -6 -168
-7 -512 -1 -180 3 -225 1 -277 -13 -135 -38 -279 -121 -621 -362 -79 -56 -154
-108 -165 -116 -12 -8 -77 -54 -143 -102 -310 -221 -487 -334 -669 -426 -126
-63 -332 -162 -339 -162 -3 0 -33 -13 -68 -29 -35 -16 -117 -52 -183 -81 -163
-72 -531 -239 -635 -289 -135 -64 -219 -114 -470 -274 -834 -533 -1520 -920
-1890 -1065 -36 -14 -68 -28 -72 -31 -4 -4 5 -20 20 -37 15 -16 32 -37 37 -46
12 -18 134 -178 150 -194 5 -6 17 -22 25 -34 8 -13 23 -30 33 -39 9 -8 17 -21
17 -28 0 -7 4 -13 8 -13 4 0 24 -21 44 -48 20 -26 46 -57 57 -69 12 -12 21
-26 21 -32 0 -5 3 -11 8 -13 6 -2 55 -60 140 -164 36 -44 118 -139 134 -156
10 -10 18 -20 18 -23 0 -3 10 -16 23 -29 12 -12 42 -47 67 -76 25 -30 60 -68
78 -87 17 -18 32 -35 32 -38 0 -4 20 -26 44 -51 25 -24 43 -44 40 -44 -2 0 14
-19 36 -42 22 -24 40 -46 40 -50 0 -4 9 -10 20 -13 11 -3 20 -13 20 -20 0 -8
6 -18 13 -22 6 -4 26 -25 44 -45 17 -20 34 -34 37 -31 3 4 6 1 6 -5 0 -12 73
-91 246 -269 55 -57 99 -103 97 -103 -3 0 2 -7 11 -15 8 -8 19 -15 25 -15 6 0
11 -4 11 -8 0 -5 73 -81 162 -170 244 -241 304 -298 572 -544 102 -93 114
-104 176 -158 35 -30 79 -70 97 -87 19 -18 36 -33 38 -33 2 0 15 -10 28 -22
13 -13 50 -45 83 -73 32 -27 69 -60 81 -72 13 -12 23 -20 23 -17 0 3 11 -5 24
-18 13 -13 43 -39 66 -57 23 -19 48 -41 56 -48 7 -7 15 -13 18 -13 3 0 19 -12
35 -27 43 -40 61 -54 61 -49 0 2 19 -13 43 -34 70 -64 77 -70 87 -70 5 0 13
-6 17 -13 4 -7 49 -44 98 -82 50 -38 92 -72 95 -75 3 -3 21 -17 40 -30 19 -13
40 -29 46 -35 6 -6 39 -31 74 -55 34 -25 70 -53 78 -62 9 -10 22 -18 29 -18 7
0 13 -3 13 -7 0 -5 21 -21 45 -38 25 -16 45 -33 45 -37 0 -5 5 -8 10 -8 6 0
16 -4 23 -10 29 -24 115 -87 149 -110 21 -14 38 -28 38 -32 0 -5 5 -8 11 -8
11 0 82 -50 87 -62 2 -5 10 -8 18 -8 8 0 17 -7 20 -15 4 -8 11 -15 17 -15 5 0
24 -10 41 -23 73 -55 285 -197 294 -197 6 0 12 -4 14 -8 2 -5 37 -31 78 -58
41 -26 77 -52 78 -56 2 -5 7 -6 12 -3 4 2 15 -4 25 -15 10 -11 24 -20 32 -20
7 0 13 -4 13 -9 0 -5 17 -17 37 -26 21 -10 44 -24 51 -32 7 -7 20 -13 28 -13
8 0 14 -3 14 -8 0 -4 20 -18 45 -32 25 -14 45 -28 45 -32 0 -5 7 -8 15 -8 8 0
15 -5 15 -12 0 -6 3 -9 6 -5 4 3 21 -5 39 -18 17 -14 37 -25 43 -25 7 0 12 -3
12 -8 0 -4 15 -14 33 -22 17 -7 41 -22 51 -32 11 -10 26 -18 33 -18 7 0 13 -5
13 -10 0 -6 3 -9 8 -8 4 1 21 -6 37 -16 17 -11 47 -30 67 -43 21 -12 42 -23
48 -23 5 0 10 -4 10 -8 0 -5 16 -14 35 -22 19 -8 35 -18 35 -22 0 -5 4 -7 9
-4 5 4 11 3 13 -2 4 -10 102 -68 104 -61 1 2 10 -3 20 -12 17 -15 114 -70 181
-103 13 -6 23 -14 23 -18 0 -5 6 -8 13 -8 7 0 34 -13 60 -30 26 -16 47 -27 47
-23 0 3 8 -1 18 -9 9 -8 34 -22 54 -32 20 -9 40 -21 43 -26 4 -6 11 -8 16 -5
5 4 9 1 9 -6 0 -7 3 -10 6 -6 3 3 23 -4 43 -16 20 -13 59 -34 86 -47 28 -14
53 -29 57 -35 4 -5 8 -6 8 -2 0 5 13 -1 29 -12 15 -11 31 -18 35 -14 3 3 6 1
6 -6 0 -7 4 -10 9 -6 5 3 12 1 15 -4 7 -11 138 -75 148 -73 5 1 8 -2 8 -7 0
-8 37 -24 53 -22 4 1 7 -4 7 -10 0 -5 5 -7 10 -4 6 3 13 -1 16 -9 3 -9 10 -13
16 -10 5 3 17 -1 26 -9 9 -7 26 -18 37 -22 11 -5 22 -9 25 -10 3 -2 15 -6 28
-10 12 -4 22 -11 22 -16 0 -5 3 -8 8 -7 4 1 34 -11 67 -27 33 -16 63 -29 67
-30 4 0 16 -8 27 -17 11 -9 21 -14 23 -12 3 2 33 -10 69 -27 71 -35 113 -52
115 -47 0 2 8 -3 17 -11 10 -7 17 -10 17 -5 0 5 4 4 8 -3 9 -15 82 -46 82 -36
0 5 4 3 8 -2 6 -9 115 -65 126 -65 3 0 26 -10 53 -22 26 -11 55 -22 63 -24 8
-2 16 -8 18 -14 2 -5 7 -8 11 -5 5 2 31 -6 59 -20 27 -13 62 -27 76 -31 14 -3
29 -10 32 -15 3 -5 10 -7 15 -4 5 4 9 1 9 -4 0 -6 7 -11 15 -11 8 0 40 -12 72
-26 31 -15 62 -27 67 -28 6 -1 17 -5 24 -9 6 -5 12 -5 12 0 0 4 4 3 8 -4 4 -6
16 -13 27 -15 11 -1 23 -7 26 -11 3 -4 16 -9 27 -10 12 -1 22 -4 22 -7 0 -4
23 -13 50 -20 28 -7 50 -18 50 -23 0 -6 3 -7 6 -4 4 3 16 1 28 -5 11 -7 26
-13 31 -14 13 -2 198 -71 250 -92 21 -10 42 -17 45 -17 9 -1 54 -16 75 -25 26
-11 57 -22 70 -26 6 -1 81 -27 168 -57 86 -30 157 -53 157 -51 0 3 10 -2 23
-10 12 -7 30 -12 40 -11 9 2 17 -1 17 -6 0 -6 5 -7 10 -4 5 3 10 1 10 -6 0 -7
3 -10 6 -6 4 3 28 -2 55 -12 26 -10 50 -16 53 -13 4 3 6 0 6 -7 0 -7 5 -9 10
-6 6 4 18 1 26 -6 8 -6 17 -9 21 -5 3 3 17 -1 30 -9 13 -9 23 -13 23 -11 0 3
18 -1 39 -9 22 -7 42 -11 45 -8 3 4 6 1 6 -5 0 -6 9 -9 20 -7 11 2 20 0 20 -6
0 -5 10 -9 23 -9 13 0 27 -3 31 -7 3 -4 16 -8 28 -10 12 -2 26 -7 32 -12 6 -4
22 -7 34 -6 13 1 26 -4 29 -12 3 -7 8 -11 13 -8 4 2 37 -4 73 -14 36 -11 68
-17 71 -13 3 3 6 0 6 -6 0 -7 14 -12 30 -12 17 0 30 -4 30 -9 0 -6 8 -9 18 -9
9 1 37 -5 62 -12 25 -7 50 -15 55 -16 41 -12 92 -26 105 -28 8 -1 24 -5 35 -9
11 -3 31 -8 45 -11 14 -3 59 -15 100 -26 41 -12 84 -23 95 -24 11 -2 28 -6 37
-10 9 -4 22 -5 28 -1 5 3 10 1 10 -5 0 -7 7 -10 15 -7 8 4 17 1 21 -4 3 -6 15
-9 25 -6 11 3 19 1 19 -4 0 -6 6 -9 13 -8 6 1 23 -1 37 -4 14 -4 36 -9 50 -11
14 -3 27 -6 30 -7 3 -1 10 -3 15 -4 6 -2 12 -4 15 -5 3 -1 18 -4 34 -6 16 -3
37 -9 45 -13 9 -4 28 -7 44 -6 15 0 27 -3 27 -8 0 -5 7 -7 15 -3 8 3 15 1 15
-5 0 -6 4 -8 8 -5 5 3 24 1 43 -4 40 -11 83 -20 122 -26 16 -2 32 -6 37 -9 4
-3 25 -7 46 -10 43 -6 79 -13 79 -15 0 -2 20 -6 65 -14 19 -3 56 -9 83 -14 26
-5 47 -7 47 -4 0 2 7 -1 15 -8 8 -7 15 -10 15 -7 0 3 19 1 43 -5 23 -5 62 -11
86 -14 25 -2 51 -10 60 -17 12 -10 13 -9 6 3 -8 13 -7 13 8 1 9 -7 17 -11 17
-9 0 3 21 1 48 -4 26 -5 65 -11 87 -14 22 -3 51 -8 65 -11 14 -3 36 -6 50 -8
14 -1 25 -3 25 -4 0 -2 14 -4 30 -6 29 -3 77 -10 140 -19 17 -3 44 -8 60 -11
17 -4 46 -8 65 -10 19 -2 35 -4 35 -5 0 -1 18 -3 40 -5 22 -1 40 -4 40 -5 0
-1 16 -3 35 -6 145 -16 164 -19 177 -27 6 -4 14 -3 18 3 4 6 12 7 18 3 6 -4
23 -8 37 -10 45 -5 124 -14 175 -19 66 -6 78 -8 90 -16 6 -4 17 -3 25 2 7 4
23 5 35 0 11 -4 37 -8 56 -9 62 -2 105 -8 119 -16 9 -6 11 -4 5 5 -6 9 -4 11
5 5 15 -9 80 -16 172 -18 38 -1 68 -4 68 -7 0 -5 101 -11 217 -14 35 0 63 -3
63 -6 0 -3 27 -6 60 -5 33 0 60 -4 60 -9 0 -5 6 -3 13 3 8 6 17 8 21 4 3 -4
39 -8 79 -9 192 -8 322 -13 327 -14 3 -1 26 -2 53 -2 33 0 45 -3 41 -11 -5 -8
-2 -8 7 1 17 16 32 16 23 0 -5 -9 -2 -9 9 1 14 11 17 11 17 0 0 -11 2 -11 10
1 9 13 10 13 10 0 0 -13 1 -13 10 0 6 10 10 11 10 3 0 -7 5 -13 11 -13 5 0 7
6 3 13 -6 9 -5 9 7 0 22 -17 833 -18 822 0 -4 7 1 6 11 -2 15 -13 19 -13 27 0
6 10 9 10 9 2 0 -7 5 -13 11 -13 5 0 7 6 3 13 -6 9 -4 9 8 -1 13 -10 17 -10
22 4 6 16 8 16 25 0 11 -10 22 -13 25 -8 3 5 38 10 78 12 121 3 257 9 368 15
58 4 134 8 170 10 36 1 65 4 65 5 0 1 36 3 80 6 126 7 200 12 200 14 0 2 131
11 182 13 24 1 43 4 43 7 0 3 19 5 43 6 23 0 71 4 107 8 36 4 85 10 110 12 25
2 63 6 85 9 22 2 63 6 90 9 53 6 97 12 155 20 19 3 58 7 85 10 28 3 68 8 90
11 22 4 56 8 75 10 19 2 35 4 35 5 0 4 68 14 160 24 17 2 48 7 70 11 22 4 50
8 62 9 12 1 25 5 28 8 4 4 14 4 23 1 11 -5 13 -3 7 6 -6 10 -3 11 13 2 12 -6
23 -8 26 -3 2 4 19 9 38 10 18 1 71 10 118 18 161 30 202 37 223 40 9 1 18 2
20 4 1 1 11 3 22 5 11 2 36 6 55 10 19 4 46 8 60 10 14 2 25 4 25 5 0 3 24 7
68 11 15 2 27 6 27 9 0 3 12 6 28 7 28 3 67 10 67 13 0 2 9 3 80 14 17 2 30 5
30 6 0 2 19 7 60 13 11 2 29 6 40 10 11 3 31 8 45 11 23 5 65 14 100 21 8 2
15 4 15 5 0 1 14 4 30 6 62 11 70 12 70 14 0 1 7 3 15 5 8 2 29 6 45 10 17 3
43 8 58 11 16 2 34 7 40 11 7 4 23 9 37 11 14 1 32 5 40 9 21 8 40 13 72 16
16 1 28 5 28 8 0 3 6 6 13 7 34 5 55 9 90 21 21 7 41 10 44 7 4 -3 11 -2 17 3
9 7 82 28 191 55 6 2 17 6 25 9 8 4 26 8 40 11 14 2 37 9 53 15 15 6 27 8 27
6 0 -3 16 1 35 9 19 8 35 12 35 9 0 -3 7 0 15 7 8 6 19 9 24 6 5 -4 12 -2 16
4 3 5 17 10 30 10 13 0 27 5 30 10 4 6 10 8 15 5 5 -3 19 -1 30 5 12 6 31 14
43 16 36 8 39 9 115 33 40 13 78 24 85 25 17 4 49 16 67 25 8 4 23 7 33 5 9
-1 17 3 17 9 0 5 3 8 6 4 3 -3 25 3 49 13 24 10 46 16 49 13 3 -4 6 -1 6 6 0
7 4 10 8 7 12 -7 82 15 82 26 0 5 4 7 9 4 5 -3 38 5 74 18 36 13 68 21 71 18
3 -3 6 0 6 6 0 7 3 11 8 11 4 -1 10 0 15 1 14 5 27 8 41 9 8 0 21 7 28 14 7 6
24 13 37 15 14 1 37 8 51 16 15 7 34 12 43 10 9 -1 17 1 17 5 0 4 33 18 73 31
39 13 83 30 97 37 14 7 30 13 36 13 6 0 29 8 50 17 22 9 46 18 54 19 8 2 23 7
35 13 27 13 57 23 75 27 8 2 16 8 18 14 2 5 8 7 13 4 6 -3 17 0 26 8 9 7 17
12 17 10 1 -4 56 15 78 28 10 6 23 10 28 10 6 0 30 8 53 18 81 36 162 67 170
64 4 -1 7 2 7 8 0 5 9 10 19 10 11 0 23 5 26 10 3 6 15 10 26 10 10 0 19 5 19
10 0 6 3 9 8 8 4 -1 23 4 42 11 19 8 38 13 43 12 4 0 7 4 7 11 0 6 3 9 6 5 4
-3 32 7 64 23 32 16 60 26 64 23 3 -4 6 -1 6 5 0 7 8 12 18 12 10 0 22 3 26 7
4 5 11 8 14 9 4 0 33 13 65 27 32 15 60 27 63 27 3 0 20 10 37 22 17 12 27 16
22 7 -5 -7 2 -5 14 6 13 11 24 19 25 17 2 -5 45 13 151 64 55 26 102 48 105
49 3 0 28 12 55 25 28 13 53 23 58 22 4 -1 7 3 7 9 0 5 5 7 10 4 6 -3 10 -1
10 4 0 6 5 11 10 11 12 0 342 162 350 171 6 7 41 19 54 18 5 0 12 5 17 13 5 7
12 13 16 14 21 2 83 35 83 44 0 6 3 10 8 9 15 -2 52 14 52 23 0 5 5 6 10 3 6
-3 10 -1 10 4 0 6 3 10 8 9 8 -1 45 13 52 21 3 3 43 26 90 50 47 25 87 47 90
50 3 3 33 19 68 35 34 16 62 32 62 36 0 3 12 11 28 17 24 11 60 30 187 103 22
13 54 31 70 41 17 10 48 28 70 40 22 12 42 24 45 28 3 3 20 14 38 24 17 9 47
25 64 35 18 9 35 20 38 23 3 3 39 25 80 50 41 24 77 46 80 49 3 3 15 11 28 18
12 6 32 18 45 25 12 6 26 18 30 25 4 6 13 12 20 12 7 0 43 20 80 45 38 25 71
45 73 45 3 0 10 5 17 11 7 5 55 37 107 71 52 33 97 65 98 69 2 5 8 9 13 9 9 0
205 128 234 153 6 4 22 16 36 25 68 43 144 97 147 104 2 5 10 8 18 8 8 0 14 5
14 10 0 6 7 10 16 10 8 0 12 5 9 10 -3 6 -1 10 5 10 12 0 73 41 78 53 2 4 10
7 18 7 8 0 14 5 14 12 0 6 3 9 6 5 4 -3 15 4 25 16 10 12 18 19 19 15 0 -5 8
0 18 10 10 9 54 42 96 72 43 30 87 64 97 74 10 11 19 17 19 13 0 -4 10 2 23
13 48 43 57 50 67 50 6 0 10 3 10 8 0 4 17 18 38 32 20 14 41 30 45 37 4 7 14
13 22 13 7 0 15 3 17 8 2 4 26 25 53 47 28 22 52 43 53 48 2 4 10 7 18 7 8 0
14 5 14 10 0 6 5 10 10 10 6 0 21 10 33 23 12 12 40 35 62 51 22 16 45 34 50
40 6 6 26 23 45 37 19 15 45 35 56 45 12 11 36 30 54 44 17 13 42 33 54 45 12
11 40 35 62 52 41 33 59 49 198 167 100 85 216 187 338 298 138 124 182 164
213 196 18 17 38 32 44 32 6 0 11 7 11 15 0 8 3 15 8 15 4 0 52 43 106 95 55
52 100 95 101 95 5 0 330 331 333 340 2 5 10 10 17 10 7 0 15 4 17 9 2 5 62
71 133 146 72 75 160 169 198 208 37 39 67 75 67 80 0 4 5 5 10 2 6 -3 10 -1
10 6 0 6 14 25 30 41 17 15 30 30 30 32 0 2 19 24 43 49 90 96 107 116 107
125 0 5 -15 17 -32 26 -18 9 -60 34 -93 55 -33 20 -85 51 -115 68 -30 16 -138
78 -240 138 -102 59 -210 121 -240 138 -30 17 -109 62 -175 100 -66 38 -140
81 -165 95 -292 163 -638 368 -830 491 -159 101 -393 226 -645 343 -66 31
-160 75 -210 98 -49 23 -308 139 -575 257 -267 118 -503 223 -525 233 -22 10
-107 47 -190 83 -82 36 -175 76 -205 90 -30 13 -93 41 -140 62 -133 58 -165
73 -490 227 -58 28 -150 70 -205 95 -55 25 -122 55 -150 68 -27 12 -138 62
-245 110 -107 48 -249 112 -315 142 -66 30 -133 61 -150 68 -38 17 -460 208
-540 245 -126 57 -161 74 -210 95 -27 13 -97 45 -155 72 -58 28 -132 63 -165
78 -223 103 -596 294 -666 342 -271 185 -423 275 -707 417 -333 167 -399 190
-582 200 -152 9 -145 6 -368 153 -341 227 -514 329 -654 386 l-38 16 5 53 c2
29 7 76 10 103 3 28 8 66 10 85 6 68 17 154 21 174 2 12 7 41 10 66 3 25 8 56
10 70 2 14 6 43 9 65 11 87 14 112 20 150 3 22 8 53 10 68 2 15 7 47 11 70 3
23 8 53 9 67 6 44 15 104 21 140 6 34 10 66 19 125 8 60 21 140 31 195 2 14 6
43 9 65 3 22 7 51 10 65 3 14 8 43 11 65 3 22 7 51 10 65 3 14 6 39 9 55 14
102 22 150 25 150 1 0 3 18 5 40 2 22 7 54 10 70 4 17 8 44 10 60 2 17 6 44 9
60 3 17 7 44 10 60 3 17 8 46 11 65 6 34 13 79 20 130 2 14 6 34 8 45 7 28 19
117 19 135 1 8 10 26 22 39 11 13 15 21 8 17 -11 -7 -11 -4 0 13 7 12 16 21
20 21 5 0 8 7 8 15 0 8 4 15 9 15 5 0 14 14 21 30 7 16 16 30 21 30 5 0 9 7 9
15 0 8 5 15 10 15 6 0 10 7 10 15 0 8 5 15 12 15 6 0 9 3 5 6 -3 4 -1 12 6 20
22 24 33 39 34 44 4 19 28 60 35 60 5 0 6 5 3 10 -3 6 1 13 9 16 9 3 13 10 10
15 -3 5 -2 9 3 9 4 0 17 18 27 40 11 22 23 40 28 40 5 0 7 4 3 10 -3 5 3 18
14 29 11 11 17 21 15 24 -2 2 2 10 11 17 8 7 15 19 15 26 0 8 5 14 11 14 5 0
8 4 5 9 -3 5 0 14 8 20 8 7 17 23 20 36 4 14 11 25 17 25 6 0 7 5 4 10 -3 6 1
13 9 16 9 3 13 10 10 15 -3 5 0 9 6 9 6 0 8 5 5 10 -3 6 -1 10 6 10 7 0 9 3 6
6 -4 4 2 19 13 34 11 16 20 33 20 39 0 6 4 11 10 11 5 0 9 3 9 8 -3 13 25 72
34 72 4 0 5 5 2 10 -3 6 -1 10 5 10 6 0 9 4 5 10 -3 5 3 18 13 28 10 10 16 24
14 30 -2 7 1 12 7 12 6 0 11 3 10 8 -2 15 14 52 23 52 5 0 6 4 3 10 -3 5 -1
10 5 10 6 0 9 4 5 9 -3 5 1 15 8 23 15 14 17 20 17 42 0 8 7 22 16 30 8 9 12
16 9 16 -4 0 0 11 9 25 9 14 14 25 11 25 -3 0 0 10 7 23 6 12 13 28 14 36 2 8
8 17 14 21 6 4 10 11 8 16 -2 9 19 80 31 99 3 6 7 19 8 29 2 11 8 25 14 33 6
7 9 13 5 13 -4 0 0 13 9 30 8 16 15 32 15 35 0 3 1 7 1 10 1 3 3 10 4 15 1 6
4 12 5 15 1 3 3 8 4 13 1 4 12 41 25 82 13 41 24 80 25 85 1 6 5 16 9 23 5 6
6 12 2 12 -3 0 1 15 8 33 8 17 15 35 15 40 5 26 15 64 19 77 10 25 12 33 26
88 7 29 17 49 21 45 5 -4 6 -3 3 3 -4 7 0 33 7 58 8 26 15 49 15 51 1 3 1 6 2
8 0 1 2 9 4 17 2 8 6 25 9 38 3 12 8 30 10 40 2 9 11 43 21 74 9 31 18 70 21
85 3 15 12 51 20 78 9 28 18 59 20 70 2 11 6 36 10 55 3 19 10 43 15 52 5 10
7 18 5 18 -3 0 1 18 9 40 8 22 12 40 10 40 -2 0 2 18 10 40 8 22 14 42 15 45
0 3 0 6 1 8 1 1 3 13 4 27 4 28 13 65 15 65 1 0 3 9 5 20 2 19 13 67 19 90 1
6 8 37 15 70 11 51 16 72 21 88 4 10 22 86 25 102 2 11 7 31 10 45 3 14 8 34
10 45 3 11 7 31 10 45 4 14 8 36 11 50 3 14 7 32 9 40 2 8 4 17 5 20 1 3 3 10
5 15 1 6 3 12 4 15 1 3 4 19 7 35 2 17 6 39 8 50 3 11 5 26 5 34 1 10 10 12
34 7 56 -11 93 -9 148 10 30 10 57 17 61 16 3 -1 11 5 18 13 6 7 19 11 27 8
10 -4 14 -2 10 3 -5 9 52 37 68 34 3 0 13 6 21 15 9 8 22 15 30 15 8 0 14 4
14 10 0 5 7 6 17 3 11 -4 14 -3 9 5 -6 11 6 17 19 10 2 -2 11 6 19 17 9 11 16
16 16 11 0 -6 7 -1 15 10 8 10 15 16 15 12 0 -5 19 10 42 31 23 22 47 37 52
34 6 -3 8 -3 4 2 -4 4 4 18 17 31 14 13 25 28 25 34 0 6 5 8 12 4 7 -4 8 -3 4
4 -4 6 2 20 13 31 11 11 17 22 14 25 -4 3 -1 6 6 6 7 0 10 4 6 9 -3 5 -1 12 4
16 13 7 41 64 41 82 0 7 4 13 10 13 5 0 9 3 8 8 -1 4 3 17 10 30 7 12 10 22 7
22 -3 0 1 12 9 28 8 15 18 36 22 47 4 11 8 22 9 25 1 3 6 20 10 38 4 17 11 32
16 32 5 0 8 3 8 8 -1 4 -1 9 1 12 1 3 4 16 6 30 2 13 8 27 13 30 4 3 8 12 9
20 0 8 7 40 16 72 16 58 25 98 30 133 2 11 5 22 6 25 1 3 3 10 4 15 1 6 6 35
11 65 10 60 11 69 15 73 1 1 3 11 5 22 2 11 5 27 8 35 2 8 7 32 12 53 4 20 11
37 16 37 5 0 8 3 7 8 -3 15 15 62 24 62 5 0 7 4 3 9 -3 5 -1 12 5 16 6 4 8 11
5 16 -4 5 -1 9 4 9 6 0 10 3 9 8 -4 11 36 102 45 102 5 0 6 4 2 9 -3 5 -1 12
5 16 5 3 10 15 10 26 0 10 5 19 12 19 6 0 8 3 5 7 -4 3 1 15 10 26 10 10 17
21 15 23 -5 9 11 54 20 54 5 0 6 5 3 10 -3 6 -1 10 4 10 6 0 10 3 9 8 -4 9 54
126 65 130 4 2 5 7 2 12 -3 5 2 15 10 24 9 8 15 17 14 18 -2 6 26 63 34 69 5
3 9 10 9 15 2 24 11 44 20 44 5 0 6 5 3 10 -3 6 -1 10 4 10 6 0 10 3 10 8 -3
15 23 72 34 72 6 0 7 3 4 7 -4 3 -2 12 4 20 6 7 8 13 4 13 -4 0 -3 6 3 13 8
10 80 212 86 242 2 6 8 35 14 65 20 96 22 113 28 215 7 144 13 216 17 245 10
57 18 94 22 100 5 7 17 68 18 88 0 6 4 12 9 12 5 0 6 4 3 10 -3 5 0 29 6 52 7
24 13 46 13 50 1 3 4 9 8 13 4 4 4 13 1 21 -3 8 0 14 6 14 6 0 8 7 5 15 -3 8
-2 20 2 27 5 7 9 18 11 23 2 12 13 55 29 118 3 12 8 38 11 57 3 19 8 37 12 40
3 3 7 14 8 25 3 24 12 82 18 115 2 13 7 46 11 74 3 28 7 60 9 71 1 11 6 47 10
80 4 33 9 69 11 80 2 11 6 45 9 75 3 30 8 69 10 85 2 17 7 57 10 90 3 33 7 71
10 85 3 14 8 54 11 90 3 36 8 83 10 105 3 22 6 63 8 90 2 28 7 95 11 150 4 55
8 150 8 210 0 126 -4 158 -36 270 -8 28 -16 57 -18 65 -2 8 -6 17 -9 20 -3 3
-16 25 -29 50 -14 25 -31 49 -38 53 -7 5 -11 13 -7 18 3 5 0 8 -8 7 -7 -2 -12
3 -10 10 1 6 -2 12 -8 12 -5 0 -25 16 -44 35 -20 19 -40 35 -46 35 -5 0 -10 3
-10 8 0 9 -27 24 -110 61 -25 11 -102 3 -127 -12 -7 -5 -13 -5 -13 -2 0 4 -13
-3 -29 -14 -15 -11 -31 -18 -35 -14 -3 3 -6 1 -6 -6 0 -7 -5 -9 -10 -6 -6 4
-9 1 -8 -7 2 -7 -2 -12 -9 -11 -7 2 -17 -6 -23 -17 -6 -11 -17 -20 -25 -20
-11 0 -10 14 7 73 12 39 21 80 22 90 0 9 4 17 8 17 4 0 7 3 6 8 0 4 2 16 7 27
4 11 32 83 61 160 29 77 58 154 65 170 7 17 13 32 14 35 4 11 51 130 78 195
42 104 49 123 140 360 48 126 46 120 84 225 47 131 62 180 55 180 -4 0 -2 4 4
8 9 6 121 358 139 437 2 11 11 47 19 80 15 62 62 293 70 342 4 25 9 57 21 143
6 42 16 123 20 165 6 63 16 157 21 195 2 19 6 67 8 105 3 39 7 104 11 145 10
131 20 414 30 915 6 284 11 384 20 425 3 14 8 38 10 53 3 16 19 72 37 125 17
53 31 101 32 107 1 5 10 35 19 65 27 93 31 121 31 250 1 129 -8 216 -24 236
-6 6 -8 13 -5 16 7 7 -49 176 -81 244 -49 105 -168 237 -310 344 -32 25 -60
48 -62 53 -2 4 -8 7 -13 7 -9 0 -68 38 -79 51 -3 3 -25 16 -50 30 -25 13 -47
27 -50 30 -13 15 -310 169 -425 221 -156 70 -339 148 -347 148 -4 0 -30 9 -56
21 -94 41 -109 47 -229 93 l-122 47 -31 67 c-17 37 -35 75 -40 84 -6 10 -10
22 -10 28 0 6 -7 27 -16 48 -10 20 -18 42 -19 47 -2 6 -35 98 -75 205 -39 107
-80 218 -90 245 -32 88 -102 269 -116 302 -8 17 -14 34 -14 37 0 3 -30 81 -66
173 -68 172 -101 250 -195 461 -52 115 -162 335 -213 426 -31 54 -56 101 -56
103 0 3 -21 37 -46 77 -26 39 -67 103 -92 141 -25 39 -49 72 -54 73 -4 2 -8 8
-8 13 0 5 -8 17 -17 27 -10 10 -42 48 -72 85 -30 36 -58 64 -63 61 -5 -3 -7
-1 -6 4 3 10 -101 111 -115 112 -4 0 -17 8 -28 18 -10 11 -32 25 -47 33 -15 7
-38 21 -52 30 -14 8 -59 34 -100 56 -41 22 -95 52 -120 67 -25 14 -65 36 -90
48 -25 13 -47 25 -50 28 -3 3 -43 25 -90 49 -47 24 -116 61 -155 82 -38 21
-131 69 -205 106 -74 37 -137 70 -140 73 -3 3 -49 27 -103 55 -54 27 -101 53
-103 57 -3 4 -12 8 -21 8 -8 0 -28 9 -44 21 -16 11 -33 17 -39 14 -5 -3 -10
-2 -10 4 0 13 -720 372 -731 365 -5 -3 -9 0 -9 6 0 6 -10 14 -22 19 -13 5 -59
26 -103 46 -261 122 -295 136 -295 127 0 -4 -4 -2 -8 5 -10 17 -155 72 -242
93 -70 17 -215 41 -320 54 -94 11 -237 28 -279 31 -24 3 -65 7 -90 10 -25 2
-73 7 -106 10 -33 2 -89 7 -125 11 -95 8 -152 12 -275 20 -60 3 -130 8 -155
10 -62 5 -667 11 -710 7z"/>
</g>
</svg>
